<svg xmlns="http://www.w3.org/2000/svg">
  <symbol id="add" viewBox="0 -960 960 960">
    <path d="M440-280h80v-160h160v-80H520v-160h-80v160H280v80h160v160Zm40 200q-83 0-156-31.5T197-197q-54-54-85.5-127T80-480q0-83 31.5-156T197-763q54-54 127-85.5T480-880q83 0 156 31.5T763-763q54 54 85.5 127T880-480q0 83-31.5 156T763-197q-54 54-127 85.5T480-80Zm0-80q134 0 227-93t93-227q0-134-93-227t-227-93q-134 0-227 93t-93 227q0 134 93 227t227 93Zm0-320Z" />
  </symbol>
  <symbol id="advanced-options" viewBox="0 -960 960 960">
    <path d="m370-80-16-128q-13-5-24.5-12T307-235l-119 50L78-375l103-78q-1-7-1-13.5v-27q0-6.5 1-13.5L78-585l110-190 119 50q11-8 23-15t24-12l16-128h220l16 128q13 5 24.5 12t22.5 15l119-50 110 190-103 78q1 7 1 13.5v27q0 6.5-2 13.5l103 78-110 190-118-50q-11 8-23 15t-24 12L590-80H370Zm70-80h79l14-106q31-8 57.5-23.5T639-327l99 41 39-68-86-65q5-14 7-29.5t2-31.5q0-16-2-31.5t-7-29.5l86-65-39-68-99 42q-22-23-48.5-38.5T533-694l-13-106h-79l-14 106q-31 8-57.5 23.5T321-633l-99-41-39 68 86 64q-5 15-7 30t-2 32q0 16 2 31t7 30l-86 65 39 68 99-42q22 23 48.5 38.5T427-266l13 106Zm42-180q58 0 99-41t41-99q0-58-41-99t-99-41q-59 0-99.5 41T342-480q0 58 40.5 99t99.5 41Zm-2-140Z" />
  </symbol>
  <symbol id="calendar-import" viewBox="0 -960 960 960">
    <path d="M680-80v-120H560v-80h120v-120h80v120h120v80H760v120h-80Zm-480-80q-33 0-56.5-23.5T120-240v-480q0-33 23.5-56.5T200-800h40v-80h80v80h240v-80h80v80h40q33 0 56.5 23.5T760-720v244q-20-3-40-3t-40 3v-84H200v320h280q0 20 3 40t11 40H200Zm0-480h480v-80H200v80Zm0 0v-80 80Z" />
  </symbol>
  <symbol id="calendar" viewBox="0 -960 960 960">
    <path d="M200-80q-33 0-56.5-23.5T120-160v-560q0-33 23.5-56.5T200-800h40v-80h80v80h320v-80h80v80h40q33 0 56.5 23.5T840-720v560q0 33-23.5 56.5T760-80H200Zm0-80h560v-400H200v400Zm0-480h560v-80H200v80Zm0 0v-80 80Zm280 240q-17 0-28.5-11.5T440-440q0-17 11.5-28.5T480-480q17 0 28.5 11.5T520-440q0 17-11.5 28.5T480-400Zm-160 0q-17 0-28.5-11.5T280-440q0-17 11.5-28.5T320-480q17 0 28.5 11.5T360-440q0 17-11.5 28.5T320-400Zm320 0q-17 0-28.5-11.5T600-440q0-17 11.5-28.5T640-480q17 0 28.5 11.5T680-440q0 17-11.5 28.5T640-400ZM480-240q-17 0-28.5-11.5T440-280q0-17 11.5-28.5T480-320q17 0 28.5 11.5T520-280q0 17-11.5 28.5T480-240Zm-160 0q-17 0-28.5-11.5T280-280q0-17 11.5-28.5T320-320q17 0 28.5 11.5T360-280q0 17-11.5 28.5T320-240Zm320 0q-17 0-28.5-11.5T600-280q0-17 11.5-28.5T640-320q17 0 28.5 11.5T680-280q0 17-11.5 28.5T640-240Z" />
  </symbol>
  <symbol id="download-pdf" viewBox="0 -960 960 960">
    <path d="M360-460h40v-80h40q17 0 28.5-11.5T480-580v-40q0-17-11.5-28.5T440-660h-80v200Zm40-120v-40h40v40h-40Zm120 120h80q17 0 28.5-11.5T640-500v-120q0-17-11.5-28.5T600-660h-80v200Zm40-40v-120h40v120h-40Zm120 40h40v-80h40v-40h-40v-40h40v-40h-80v200ZM320-240q-33 0-56.5-23.5T240-320v-480q0-33 23.5-56.5T320-880h480q33 0 56.5 23.5T880-800v480q0 33-23.5 56.5T800-240H320Zm0-80h480v-480H320v480ZM160-80q-33 0-56.5-23.5T80-160v-560h80v560h560v80H160Zm160-720v480-480Z" />
  </symbol>
  <symbol id="edit" viewBox="0 0 24 24">
    <path d="M3 17.25V21h3.75L17.8 9.95l-3.75-3.75L3 17.25zM20.7 7.05c.4-.4.4-1 0-1.4l-2.35-2.35c-.4-.4-1-.4-1.4 0l-1.85 1.85 3.75 3.75 1.85-1.85z" />
  </symbol>
  <symbol id="groups" viewBox="0 -960 960 960">
    <path d="M0-240v-63q0-43 44-70t116-27q13 0 25 .5t23 2.5q-14 21-21 44t-7 48v65H0Zm240 0v-65q0-32 17.5-58.5T307-410q32-20 76.5-30t96.5-10q53 0 97.5 10t76.5 30q32 20 49 46.5t17 58.5v65H240Zm540 0v-65q0-26-6.5-49T754-397q11-2 22.5-2.5t23.5-.5q72 0 116 26.5t44 70.5v63H780Zm-455-80h311q-10-20-55.5-35T480-370q-55 0-100.5 15T325-320ZM160-440q-33 0-56.5-23.5T80-520q0-34 23.5-57t56.5-23q34 0 57 23t23 57q0 33-23 56.5T160-440Zm640 0q-33 0-56.5-23.5T720-520q0-34 23.5-57t56.5-23q34 0 57 23t23 57q0 33-23 56.5T800-440Zm-320-40q-50 0-85-35t-35-85q0-51 35-85.5t85-34.5q51 0 85.5 34.5T600-600q0 50-34.5 85T480-480Zm0-80q17 0 28.5-11.5T520-600q0-17-11.5-28.5T480-640q-17 0-28.5 11.5T440-600q0 17 11.5 28.5T480-560Zm1 240Zm-1-280Z" />
  </symbol>
  <symbol id="help" viewBox="0 0 24 24">
    <path d="M11 18h2v-2h-2v2zm1-16C6.5 2 2 6.5 2 12s4.5 10 10 10 10-4.5 10-10S17.5 2 12 2zm0 18c-4.4 0-8-3.6-8-8s3.6-8 8-8 8 3.6 8 8-3.6 8-8 8zm0-14c-2.2 0-4 1.8-4 4h2c0-1.1.9-2 2-2s2 .9 2 2c0 2-3 1.8-3 5h2c0-2.2 3-2.5 3-5 0-2.2-1.8-4-4-4z" />
  </symbol>
  <symbol id="hide" viewBox="0 -960 960 960">
    <path d="M480-80q-83 0-156-31.5T197-197q-54-54-85.5-127T80-480q0-83 31.5-156T197-763q54-54 127-85.5T480-880q83 0 156 31.5T763-763q54 54 85.5 127T880-480q0 83-31.5 156T763-197q-54 54-127 85.5T480-80Zm0-80q54 0 104-17.5t92-50.5L228-676q-33 42-50.5 92T160-480q0 134 93 227t227 93Zm252-124q33-42 50.5-92T800-480q0-134-93-227t-227-93q-54 0-104 17.5T284-732l448 448Z" />
  </symbol>
  <symbol id="information" viewBox="0 0 24 24">
    <path d="M11 17h2v-6h-2v6zm1-14C6.5 3 2 7.5 2 13s4.5 10 10 10 10-4.5 10-10S17.5 3 12 3zm0 18c-4.4 0-8-3.6-8-8s3.6-8 8-8 8 3.6 8 8-3.6 8-8 8zm-1-10h2V7h-2v4z" />
  </symbol>
  <symbol id="language" viewBox="0 0 24 24">
    <path d="M12 2C6.5 2 2 6.5 2 12s4.5 10 10 10 10-4.5 10-10S17.5 2 12 2zm6.9 6h-3c-.3-1.2-.8-2.3-1.4-3.2 1.5.5 2.7 1.6 3.4 3.2zM12 4.1c.8 1.1 1.5 2.4 1.8 3.9h-3.6c.3-1.5 1-2.8 1.8-3.9zM4.3 14c-.2-.6-.3-1.3-.3-2s.1-1.4.3-2h3.4c-.1.7-.2 1.3-.2 2s.1 1.3.2 2H4.3zm.8 2h3c.3 1.2.8 2.3 1.4 3.2-1.5-.5-2.7-1.6-3.4-3.2zm3-8h-3c.7-1.6 2-2.7 3.4-3.2C8.8 5.7 8.3 6.8 8.1 8zm3.9 11.9c-.8-1.1-1.5-2.4-1.8-3.9h3.6c-.3 1.5-1 2.8-1.8 3.9zM14.2 14H9.8c-.1-.7-.2-1.3-.2-2s.1-1.3.2-2h4.4c.1.7.2 1.3.2 2s-.1 1.3-.2 2zm.3 5.2c.6-.9 1.1-2 1.4-3.2h3c-.8 1.6-2 2.7-3.4 3.2zm1.8-5.2c.1-.7.2-1.3.2-2s-.1-1.3-.2-2h3.4c.2.6.3 1.3.3 2s-.1 1.4-.3 2h-3.4z" />
  </symbol>
  <symbol id="remove" viewBox="0 -960 960 960">
    <path d="M280-440h400v-80H280v80ZM480-80q-83 0-156-31.5T197-197q-54-54-85.5-127T80-480q0-83 31.5-156T197-763q54-54 127-85.5T480-880q83 0 156 31.5T763-763q54 54 85.5 127T880-480q0 83-31.5 156T763-197q-54 54-127 85.5T480-80Zm0-80q134 0 227-93t93-227q0-134-93-227t-227-93q-134 0-227 93t-93 227q0 134 93 227t227 93Zm0-320Z" />
  </symbol>
  <symbol id="report-problem" viewBox="0 0 24 24">
    <path d="M14.4 6l-.4-2H5v17h2v-7h7.6l.4 2h7V6h-7.6z" />
  </symbol>
  <symbol id="save" viewBox="0 0 24 24">
    <path d="M17 3H5c-1.1 0-2 .9-2 2v14c0 1.1.9 2 2 2h14c1.1 0 2-.9 2-2V7l-4-4zM12 19c-1.7 0-3-1.3-3-3s1.3-3 3-3 3 1.3 3 3-1.3 3-3 3zm3-10H5V5h10v4z" />
  </symbol>
  <symbol id="share-facebook" viewBox="0 0 24 24">
    <path d="M9.1 23.7v-8H6.6V12h2.5v-1.6c0-4.1 1.9-6 5.8-6 .7 0 2 .1 2.5.3v3.3c-.3 0-.8 0-1.4 0-2 0-2.7.7-2.7 2.7V12h3.9l-.7 3.7h-3.2v8H9.1z" />
  </symbol>
  <symbol id="share-link" viewBox="0 0 24 24">
    <path d="M3.9 12c0-1.7 1.4-3.1 3.1-3.1h4V7H7c-2.8 0-5 2.2-5 5s2.2 5 5 5h4v-1.9H7c-1.7 0-3.1-1.4-3.1-3.1zM8 13h8v-2H8v2zm9-6h-4v1.9h4c1.7 0 3.1 1.4 3.1 3.1s-1.4 3.1-3.1 3.1h-4V17h4c2.8 0 5-2.2 5-5s-2.2-5-5-5z" />
  </symbol>
  <symbol id="share-twitter" viewBox="0 0 24 24">
    <path d="M23.95 4.57c-.88.39-1.83.65-2.83.77 1.02-.61 1.8-1.57 2.17-2.72-.95.56-2 .97-3.13 1.19C19.26 2.85 17.98 2.3 16.62 2.3c-2.72 0-4.91 2.2-4.91 4.91 0 .39.04.76.13 1.12C7.73 8.13 4.1 6.17 1.67 3.15c-.43.73-.67 1.57-.67 2.48 0 1.71.87 3.21 2.19 4.09-.81-.03-1.57-.25-2.23-.62v.06c0 2.39 1.7 4.38 3.95 4.83-.41.11-.85.17-1.3.17-.31 0-.62-.03-.92-.08.62 1.96 2.44 3.38 4.6 3.42A9.87 9.87 0 0 1 0 19.54 13.9 13.9 0 0 0 7.55 21.7c9.05 0 14-7.5 14-14v-.64c.96-.69 1.8-1.56 2.45-2.55z" />
  </symbol>
  <symbol id="start" viewBox="0 0 24 24">
    <path d="M12 4l-1.4 1.4L16.2 11H4v2h12.2l-5.6 5.6L12 20l8-8-8-8z" />
  </symbol>
  <symbol id="warning" viewBox="0 0 24 24">
    <path d="M1 21h22L12 2 1 21zm12-3h-2v-2h2v2zm0-4h-2v-4h2v4z" />
  </symbol>
  <symbol id="weeks" viewBox="0 -960 960 960">
    <path d="M320-400q-17 0-28.5-11.5T280-440q0-17 11.5-28.5T320-480q17 0 28.5 11.5T360-440q0 17-11.5 28.5T320-400Zm160 0q-17 0-28.5-11.5T440-440q0-17 11.5-28.5T480-480q17 0 28.5 11.5T520-440q0 17-11.5 28.5T480-400Zm160 0q-17 0-28.5-11.5T600-440q0-17 11.5-28.5T640-480q17 0 28.5 11.5T680-440q0 17-11.5 28.5T640-400ZM200-80q-33 0-56.5-23.5T120-160v-560q0-33 23.5-56.5T200-800h40v-80h80v80h320v-80h80v80h40q33 0 56.5 23.5T840-720v560q0 33-23.5 56.5T760-80H200Zm0-80h560v-400H200v400Zm0-480h560v-80H200v80Zm0 0v-80 80Z" />
  </symbol>
</svg>
