<svg xmlns="http://www.w3.org/2000/svg" viewBox="0 0 24 24"><path d="M12 2C6.5 2 2 6.5 2 12s4.5 10 10 10 10-4.5 10-10S17.5 2 12 2zm6.9 6h-3c-.3-1.2-.8-2.3-1.4-3.2 1.5.5 2.7 1.6 3.4 3.2zM12 4.1c.8 1.1 1.5 2.4 1.8 3.9h-3.6c.3-1.5 1-2.8 1.8-3.9zM4.3 14c-.2-.6-.3-1.3-.3-2s.1-1.4.3-2h3.4c-.1.7-.2 1.3-.2 2s.1 1.3.2 2H4.3zm.8 2h3c.3 1.2.8 2.3 1.4 3.2-1.5-.5-2.7-1.6-3.4-3.2zm3-8h-3c.7-1.6 2-2.7 3.4-3.2C8.8 5.7 8.3 6.8 8.1 8zm3.9 11.9c-.8-1.1-1.5-2.4-1.8-3.9h3.6c-.3 1.5-1 2.8-1.8 3.9zM14.2 14H9.8c-.1-.7-.2-1.3-.2-2s.1-1.3.2-2h4.4c.1.7.2 1.3.2 2s-.1 1.3-.2 2zm.3 5.2c.6-.9 1.1-2 1.4-3.2h3c-.8 1.6-2 2.7-3.4 3.2zm1.8-5.2c.1-.7.2-1.3.2-2s-.1-1.3-.2-2h3.4c.2.6.3 1.3.3 2s-.1 1.4-.3 2h-3.4z"/></svg>
