<svg xmlns="http://www.w3.org/2000/svg" viewBox="0 0 24 24"><path d="M23.95 4.57c-.88.39-1.83.65-2.83.77 1.02-.61 1.8-1.57 2.17-2.72-.95.56-2 .97-3.13 1.19C19.26 2.85 17.98 2.3 16.62 2.3c-2.72 0-4.91 2.2-4.91 4.91 0 .39.04.76.13 1.12C7.73 8.13 4.1 6.17 1.67 3.15c-.43.73-.67 1.57-.67 2.48 0 1.71.87 3.21 2.19 4.09-.81-.03-1.57-.25-2.23-.62v.06c0 2.39 1.7 4.38 3.95 4.83-.41.11-.85.17-1.3.17-.31 0-.62-.03-.92-.08.62 1.96 2.44 3.38 4.6 3.42A9.87 9.87 0 0 1 0 19.54 13.9 13.9 0 0 0 7.55 21.7c9.05 0 14-7.5 14-14v-.64c.96-.69 1.8-1.56 2.45-2.55z"/></svg>
